<?xml version="1.0" encoding="UTF-8" standalone="no"?>
<!DOCTYPE svg PUBLIC "-//W3C//DTD SVG 1.1//EN" "http://www.w3.org/Graphics/SVG/1.1/DTD/svg11.dtd">
<svg width="100%" height="100%" viewBox="0 0 32 32" version="1.1" xmlns="http://www.w3.org/2000/svg" xmlns:xlink="http://www.w3.org/1999/xlink" xml:space="preserve" xmlns:serif="http://www.serif.com/" style="fill-rule:evenodd;clip-rule:evenodd;stroke-linejoin:round;stroke-miterlimit:2;">
    <g transform="matrix(0.707107,0.707107,-0.707107,0.707107,15.9972,-6.62856)">
        <path d="M21.313,3.5C20.547,3.5 19.766,3.797 19.188,4.375C18.805,4.758 18.566,5.227 18.438,5.719C18.23,5.676 18.027,5.625 17.813,5.625C17.047,5.625 16.266,5.891 15.688,6.469C14.531,7.625 14.531,9.531 15.688,10.688L17.794,12.794L12.794,17.794L10.688,15.688C10.109,15.109 9.359,14.813 8.594,14.813C7.828,14.813 7.047,15.109 6.469,15.688C5.723,16.438 5.469,17.5 5.688,18.469C5.207,18.594 4.754,18.809 4.375,19.188C3.219,20.344 3.219,22.25 4.375,23.406L4.406,23.438L5.75,24.813L5.063,25.5L6.5,26.938L7.188,26.25L8.594,27.625C9.75,28.781 11.656,28.781 12.813,27.625C13.188,27.25 13.43,26.793 13.563,26.313C14.523,26.52 15.57,26.273 16.313,25.531C17.469,24.375 17.469,22.469 16.313,21.313L14.208,19.208L19.185,14.231L21.313,16.313C22.469,17.469 24.375,17.469 25.531,16.313C26.27,15.57 26.52,14.523 26.313,13.563C26.797,13.43 27.246,13.191 27.625,12.813C28.781,11.656 28.781,9.75 27.625,8.594L26.25,7.188L26.938,6.5L25.5,5.063L24.813,5.75L23.406,4.375C22.828,3.797 22.078,3.5 21.313,3.5ZM21.313,5.5C21.563,5.5 21.805,5.586 22,5.781L26.219,10C26.613,10.395 26.609,10.984 26.219,11.375C25.828,11.766 25.207,11.766 24.813,11.375L20.625,7.188C20.234,6.797 20.234,6.176 20.625,5.781C20.82,5.586 21.063,5.5 21.313,5.5ZM17.813,7.594C18.063,7.594 18.305,7.711 18.5,7.906L24.094,13.5C24.484,13.895 24.484,14.512 24.094,14.906C23.703,15.297 23.113,15.266 22.719,14.875L22.688,14.875L17.094,9.281C16.703,8.891 16.734,8.301 17.125,7.906C17.316,7.723 17.57,7.594 17.813,7.594ZM8.594,16.813C8.844,16.813 9.086,16.93 9.281,17.125L9.313,17.125L14.906,22.719C15.297,23.109 15.266,23.699 14.875,24.094C14.484,24.465 13.887,24.48 13.5,24.094L12.813,23.406L12.688,23.313L8.594,19.188L7.906,18.5C7.516,18.105 7.516,17.488 7.906,17.094C8.102,16.898 8.344,16.813 8.594,16.813ZM6.469,20.313C6.719,20.313 6.992,20.43 7.188,20.625L11.375,24.813C11.766,25.203 11.766,25.824 11.375,26.219C10.984,26.609 10.395,26.609 10,26.219L5.781,22C5.387,21.605 5.391,21.016 5.781,20.625C5.977,20.43 6.219,20.313 6.469,20.313Z" style="fill-rule:nonzero;"/>
    </g>
</svg>
